<?xml version="1.0" encoding="UTF-8"?>
<!DOCTYPE svg PUBLIC "-//W3C//DTD SVG 1.1//EN" "http://www.w3.org/Graphics/SVG/1.1/DTD/svg11.dtd">
<!-- Creator: CorelDRAW 2020 (64 Bit) -->
<svg xmlns="http://www.w3.org/2000/svg" xml:space="preserve" width="30mm" height="30mm" version="1.1" style="shape-rendering:geometricPrecision; text-rendering:geometricPrecision; image-rendering:optimizeQuality; fill-rule:evenodd; clip-rule:evenodd"
viewBox="0 0 3000 3000"
 xmlns:xlink="http://www.w3.org/1999/xlink"
 xmlns:xodm="http://www.corel.com/coreldraw/odm/2003"
 enable-background="new 0 0 24 24">
 <defs>
  <style type="text/css">
   <![CDATA[
    .fil0 {fill:#05DBF2}
   ]]>
  </style>
 </defs>
 <g id="Camada_x0020_1">
  <metadata id="CorelCorpID_0Corel-Layer"/>
  <path class="fil0" d="M1492.85 350.19c-654.98,0 -1186.1,531.06 -1186.1,1186.24 0,524.02 339.84,968.62 811.23,1125.47 59.32,10.9 80.97,-25.74 80.97,-57.18 0,-28.15 -1.03,-102.75 -1.61,-201.72 -329.95,71.66 -399.57,-159.02 -399.57,-159.02 -53.94,-137.02 -131.69,-173.52 -131.69,-173.52 -107.71,-73.58 8.13,-72.1 8.13,-72.1 119.04,8.4 181.68,122.24 181.68,122.24 105.83,181.27 277.63,128.93 345.23,98.56 10.78,-76.64 41.41,-128.92 75.3,-158.56 -263.4,-29.93 -540.31,-131.72 -540.31,-586.26 0,-129.48 46.22,-235.37 122.1,-318.29 -12.2,-30.01 -52.91,-150.6 11.64,-313.91 0,0 99.59,-31.89 326.17,121.59 94.62,-26.31 196.1,-39.46 296.97,-39.92 100.73,0.46 202.2,13.61 296.97,39.92 226.45,-153.48 325.86,-121.59 325.86,-121.59 64.71,163.31 24.01,283.9 11.81,313.91 76.02,82.92 121.93,188.81 121.93,318.29 0,455.68 -277.34,555.96 -541.59,585.33 42.58,36.62 80.52,109.01 80.52,219.66 0,158.57 -1.44,286.51 -1.44,325.39 0,31.73 21.36,68.64 81.55,57.06 470.93,-157.17 810.51,-601.47 810.51,-1125.35 0,-655.18 -531.15,-1186.24 -1186.26,-1186.24z"/>
 </g>
</svg>
