<?xml version="1.0" encoding="UTF-8"?>
<!DOCTYPE svg PUBLIC "-//W3C//DTD SVG 1.1//EN" "http://www.w3.org/Graphics/SVG/1.1/DTD/svg11.dtd">
<!-- Creator: CorelDRAW 2020 (64 Bit) -->
<svg xmlns="http://www.w3.org/2000/svg" xml:space="preserve" width="30mm" height="30mm" version="1.1" style="shape-rendering:geometricPrecision; text-rendering:geometricPrecision; image-rendering:optimizeQuality; fill-rule:evenodd; clip-rule:evenodd"
viewBox="0 0 3000 3000"
 xmlns:xlink="http://www.w3.org/1999/xlink"
 xmlns:xodm="http://www.corel.com/coreldraw/odm/2003"
 enable-background="new 0 0 24 24">
 <defs>
  <style type="text/css">
   <![CDATA[
    .fil0 {fill:none}
    .fil1 {fill:#05DBF2;fill-rule:nonzero}
   ]]>
  </style>
 </defs>
 <g id="Camada_x0020_1">
  <metadata id="CorelCorpID_0Corel-Layer"/>
  <rect class="fil0" x="-7.07" y="7.07" width="3000" height="3000"/>
  <g id="_2956617126368">
   <g>
    <path class="fil1" d="M2548.43 451.55c-86.96,-86.98 -191.73,-130.48 -314.23,-130.48l-1482.5 0c-122.51,0 -227.28,43.5 -314.27,130.48 -86.98,87 -130.48,191.76 -130.48,314.27l0 1482.49c0,122.49 43.5,227.27 130.48,314.27 86.99,86.99 191.76,130.49 314.26,130.49l1482.5 0c122.5,0 227.27,-43.5 314.23,-130.49 86.99,-87 130.49,-191.77 130.49,-314.27l0 -1482.49c0,-122.51 -43.5,-227.29 -130.48,-314.27zm-1518.77 1855.43l-356.73 0 0 -1071.72 356.73 0 0 1071.72zm-32.41 -1270.14c-37.06,35.52 -85.96,53.28 -146.71,53.28l-1.56 0c-58.68,0 -106.27,-17.76 -142.83,-53.28 -36.57,-35.52 -54.84,-79.53 -54.84,-132.03 0,-53.53 18.8,-97.81 56.37,-132.82 37.59,-35 86.23,-52.51 145.93,-52.51 59.71,0 107.58,17.51 143.62,52.51 36.03,35.01 54.57,79.29 55.59,132.82 -0.01,52.48 -18.52,96.49 -55.57,132.03zm1315.7 1270.14l-356.73 0 0 -572.91c0,-161.61 -59.69,-242.44 -179.12,-242.44 -45.29,0 -83.41,12.61 -114.28,37.84 -30.91,25.21 -54.07,55.84 -69.49,91.9 -7.22,18.51 -10.81,47.33 -10.81,86.44l0 599.17 -356.73 0c3.09,-646.52 3.09,-1003.78 0,-1071.73l356.73 0 0 151.31c75,-117.27 181.51,-176.03 319.67,-176.03 123.54,0 222.9,40.68 298.05,121.99 75.16,81.34 112.73,201.29 112.73,359.8l0 614.66 -0.02 0z"/>
   </g>
   <g>
   </g>
   <g>
   </g>
   <g>
   </g>
   <g>
   </g>
   <g>
   </g>
   <g>
   </g>
   <g>
   </g>
   <g>
   </g>
   <g>
   </g>
   <g>
   </g>
   <g>
   </g>
   <g>
   </g>
   <g>
   </g>
   <g>
   </g>
   <g>
   </g>
  </g>
 </g>
</svg>
