<?xml version="1.0" encoding="UTF-8"?>
<!DOCTYPE svg PUBLIC "-//W3C//DTD SVG 1.1//EN" "http://www.w3.org/Graphics/SVG/1.1/DTD/svg11.dtd">
<!-- Creator: CorelDRAW 2020 (64 Bit) -->
<svg xmlns="http://www.w3.org/2000/svg" xml:space="preserve" width="30mm" height="30mm" version="1.1" style="shape-rendering:geometricPrecision; text-rendering:geometricPrecision; image-rendering:optimizeQuality; fill-rule:evenodd; clip-rule:evenodd"
viewBox="0 0 3000 3000"
 xmlns:xlink="http://www.w3.org/1999/xlink"
 xmlns:xodm="http://www.corel.com/coreldraw/odm/2003"
 enable-background="new 0 0 24 24">
 <defs>
  <style type="text/css">
   <![CDATA[
    .fil0 {fill:#05DBF2}
   ]]>
  </style>
 </defs>
 <g id="Camada_x0020_1">
  <metadata id="CorelCorpID_0Corel-Layer"/>
  <path class="fil0" d="M1492.93 321.07c655.01,0 1186,530.99 1186,1186 0,655.01 -530.99,1186 -1186,1186 -655.01,0 -1186,-530.99 -1186,-1186 0,-655.01 530.99,-1186 1186,-1186zm724.18 649.15l-1405.91 0 692.95 668.02 712.96 -668.02zm-431.41 520.31l489.47 432.55 0 -891.17 -489.47 458.62zm-557.72 -0.85l-495.67 -477.85 0 890.9 495.67 -413.05zm495.63 59.03l-220.28 206.41 -214 -206.31 -515.84 429.86 1436.66 0 -486.54 -429.96z"/>
 </g>
</svg>
