<?xml version="1.0" encoding="UTF-8"?>
<!DOCTYPE svg PUBLIC "-//W3C//DTD SVG 1.1//EN" "http://www.w3.org/Graphics/SVG/1.1/DTD/svg11.dtd">
<!-- Creator: CorelDRAW 2020 (64 Bit) -->
<svg xmlns="http://www.w3.org/2000/svg" xml:space="preserve" width="30mm" height="30mm" version="1.1" style="shape-rendering:geometricPrecision; text-rendering:geometricPrecision; image-rendering:optimizeQuality; fill-rule:evenodd; clip-rule:evenodd"
viewBox="0 0 3000 3000"
 xmlns:xlink="http://www.w3.org/1999/xlink"
 xmlns:xodm="http://www.corel.com/coreldraw/odm/2003"
 enable-background="new 0 0 24 24">
 <defs>
  <style type="text/css">
   <![CDATA[
    .fil0 {fill:none}
    .fil1 {fill:#05DBF2}
   ]]>
  </style>
 </defs>
 <g id="Camada_x0020_1">
  <metadata id="CorelCorpID_0Corel-Layer"/>
  <rect class="fil0" x="-7.07" y="7.07" width="3000" height="3000"/>
  <path class="fil1" d="M1492.93 321.07c655,0 1186,531 1186,1186 0,655 -531,1186 -1186,1186 -655,0 -1186,-531 -1186,-1186 0,-655 531,-1186 1186,-1186zm681.32 1743.99c-71.38,-124.32 -143.03,-248.5 -215.11,-372.42 -19.8,-34.03 -47.01,-41.45 -81.14,-22.63 -35.99,19.85 -71.58,40.47 -106.83,61.61 -29.27,17.57 -38.48,45.78 -23.33,74.69l233.82 398.86c16.91,14.85 39.55,17.01 61.83,4.88 37.85,-20.6 75.86,-41.29 111.67,-65.13 14.23,-9.46 22.76,-27.46 33.41,-40.96 -6.12,-16.94 -8.57,-28.87 -14.32,-38.9zm-814.04 -929.47c16.8,28.8 46.15,35.97 75.25,20.01 38.6,-21.14 77.41,-42.26 113.8,-66.85 13.92,-9.4 21.38,-28.34 31.08,-41.95 -7.02,-16.84 -10.61,-28.23 -16.28,-38.5 -15.48,-28.01 -31.84,-55.55 -47.85,-83.28 -54.52,-94.45 -108.92,-188.96 -163.6,-283.32 -21.94,-37.87 -49.59,-45.17 -87.82,-23.4 -34.78,19.8 -69.71,39.39 -103.81,60.33 -29.12,17.88 -37.56,45.91 -21.14,74.72 72.87,127.75 146.26,255.2 220.37,382.24zm329.98 696.44c-49.63,17.6 -96.6,12 -142.2,-12.36 -23.69,-12.64 -47.19,-27.16 -67.23,-44.85 -106.96,-94.49 -174.69,-213.28 -207.64,-351.25 -20.5,-85.85 -26.16,-170.01 38.67,-237.04l-240.71 -410.62c-18.93,12.12 -37.1,23.79 -54.29,35.8 -71.93,50.22 -111.82,119.86 -105.32,207.25 6.21,83.44 14.68,168.32 36.45,248.68 77.77,287.12 223.08,539.33 415.17,764.96 73.67,86.53 156.01,164.33 254.32,223.16 101.7,60.84 222.65,54.51 312.78,-14.32l-240 -409.41z"/>
 </g>
</svg>
